<?xml version="1.0" standalone="no"?>
<!DOCTYPE svg PUBLIC "-//W3C//DTD SVG 20010904//EN"
 "http://www.w3.org/TR/2001/REC-SVG-20010904/DTD/svg10.dtd">
<svg version="1.0" xmlns="http://www.w3.org/2000/svg"
 width="1280.000000pt" height="1280.000000pt" viewBox="0 0 1280.000000 1280.000000"
 preserveAspectRatio="xMidYMid meet">
<g transform="translate(0.000000,1280.000000) scale(0.100000,-0.100000)"
fill="#000000" stroke="none">
<path d="M7877 12139 c-561 -50 -1018 -398 -1205 -919 -61 -170 -87 -298 -103
-507 -18 -227 0 -407 63 -648 36 -134 37 -191 7 -266 -10 -28 -19 -54 -19 -59
0 -18 21 -10 45 18 13 15 27 24 31 20 4 -4 2 -85 -4 -180 -23 -365 -5 -414
434 -1149 143 -240 218 -344 280 -389 40 -29 44 -35 44 -75 0 -55 -8 -75 -29
-75 -9 0 -61 -16 -116 -36 -132 -47 -396 -114 -620 -157 -228 -44 -303 -55
-484 -67 -234 -17 -270 -29 -364 -119 -166 -158 -368 -523 -532 -961 -15 -41
-32 -80 -37 -86 -9 -12 -94 -25 -114 -17 -7 3 -16 26 -19 51 -17 125 -61 307
-99 406 -24 61 -53 145 -65 186 -21 67 -37 103 -103 232 -25 48 -49 273 -37
349 16 98 49 120 214 138 58 7 113 20 142 34 41 19 48 27 51 54 2 17 -1 49 -7
70 -10 35 -84 147 -134 202 -31 33 -185 134 -254 166 -32 15 -98 47 -148 71
-49 23 -118 48 -153 55 -61 11 -207 9 -419 -7 -79 -6 -83 -6 -114 21 -18 15
-43 31 -56 36 -28 10 -160 -6 -180 -23 -7 -6 -30 -14 -51 -18 -20 -4 -136 -32
-257 -63 -121 -30 -278 -69 -350 -86 -114 -27 -314 -93 -398 -132 -16 -7 -38
-31 -49 -52 -21 -42 -20 -73 9 -179 15 -56 17 -58 50 -58 20 0 67 8 105 17
100 24 102 21 106 -113 4 -132 -13 -211 -69 -327 -21 -45 -44 -109 -50 -142
-6 -33 -17 -83 -25 -111 -21 -77 -29 -170 -15 -179 7 -4 39 3 72 15 50 19 63
29 80 62 11 22 36 64 55 94 51 80 61 117 74 267 16 187 15 186 86 224 58 32
98 41 108 25 2 -4 0 -41 -6 -82 -8 -60 -7 -92 6 -160 15 -80 15 -85 -2 -105
-24 -26 -62 -120 -62 -152 0 -16 8 -26 24 -32 42 -16 56 -75 56 -229 0 -104 5
-157 19 -213 20 -76 61 -295 61 -324 0 -32 -22 -9 -39 41 -9 28 -32 69 -49 92
-75 95 -258 203 -400 237 -170 41 -407 -6 -603 -121 -190 -112 -254 -245 -333
-699 -63 -355 -85 -469 -126 -635 -69 -282 -92 -388 -97 -451 -18 -210 106
-315 367 -313 120 1 181 18 220 63 14 16 79 56 144 90 138 71 209 120 233 162
10 16 22 28 28 26 5 -2 15 -48 21 -103 7 -54 17 -143 23 -196 19 -165 24 -150
-80 -204 -102 -53 -209 -132 -255 -190 -55 -69 -83 -121 -174 -321 -71 -156
-102 -211 -149 -268 -75 -91 -87 -116 -102 -200 -24 -137 3 -357 67 -541 38
-112 69 -169 121 -225 108 -115 257 -134 479 -59 105 36 144 38 170 9 24 -26
67 -49 93 -49 11 0 23 -5 26 -11 6 -9 28 -222 59 -571 8 -95 18 -153 27 -164
13 -16 86 -17 1102 -10 1018 6 1088 6 1094 -10 15 -39 -59 -899 -93 -1079 l-6
-36 633 6 c349 3 1448 8 2443 11 l1809 6 -7 67 c-8 88 -31 157 -111 336 -166
370 -231 555 -194 555 6 0 43 -19 82 -42 224 -131 522 -229 654 -215 237 25
361 253 418 767 28 260 39 992 26 1740 -15 841 -29 980 -120 1176 l-38 80 21
36 21 36 -22 69 c-51 159 -51 167 7 608 59 450 62 548 21 700 -38 139 -90 220
-241 379 -164 172 -545 489 -704 587 -47 29 -86 57 -86 63 0 6 9 45 20 86 25
95 27 296 4 449 -17 119 -87 434 -165 741 -46 184 -52 219 -56 340 l-5 135 60
170 c88 254 97 305 96 580 0 181 -5 262 -22 381 -60 416 -156 697 -325 949
-75 112 -254 293 -361 365 -220 147 -498 236 -816 260 -148 11 -143 11 -283
-1z m-3989 -4092 c7 -82 -88 -297 -132 -297 -7 0 -23 25 -35 56 -25 65 -31
227 -8 241 23 15 122 42 147 40 21 -2 25 -8 28 -40z m337 -153 c28 -8 68 -25
90 -37 l40 -23 0 -174 c0 -191 -13 -282 -66 -464 -32 -111 -37 -192 -13 -237
14 -28 14 -37 -4 -109 -11 -44 -32 -100 -46 -125 -26 -44 -60 -72 -69 -58 -3
5 -13 51 -22 103 -9 52 -23 129 -31 170 -9 41 -22 111 -30 155 -9 44 -24 107
-35 141 -10 33 -19 67 -19 76 0 8 -13 33 -30 54 -16 21 -48 64 -70 96 -22 31
-52 66 -67 78 -19 15 -24 25 -18 34 6 7 27 38 48 67 20 30 52 73 71 96 19 23
42 68 51 100 24 84 28 86 105 79 36 -4 88 -14 115 -22z m5180 -3986 c52 -99
131 -220 193 -295 82 -98 74 -103 -60 -39 -51 23 -103 46 -115 50 -37 12 -45
33 -59 154 -16 139 -17 202 -5 202 5 0 25 -33 46 -72z"/>
</g>
</svg>
